<svg width="90" height="90" viewBox="0 0 90 90" fill="none" xmlns="http://www.w3.org/2000/svg">
<circle cx="45" cy="45" r="44.5" stroke="#DBE1E3"/>
<path d="M58.6038 57.4946H54.2602C52.4893 57.4946 50.7705 58.2033 49.4164 59.4851C47.9375 60.8814 46.3226 61.6737 44.9998 61.6737C43.3226 61.6737 41.6457 60.9339 40.1767 59.527C38.8017 58.2244 37.083 57.4949 35.312 57.4949H31.3954C25.1141 57.4945 20 62.6114 20 68.9579C20 69.5415 20.4689 70 21.0417 70H68.9583C69.5311 70 70 69.4792 70 68.8955C70 62.6114 64.8856 57.4945 58.6037 57.4945L58.6038 57.4946Z" fill="#181D1F"/>
<path d="M41.2608 29.0665C41.4796 30.7546 42.9274 32.0364 44.6254 32.0364H45.3649C47.0731 32.0364 48.521 30.7546 48.7398 29.0665L49.4063 23.7727C49.5105 22.8141 49.2083 21.8449 48.5625 21.1257C47.9168 20.4067 47.0002 20 46.0314 20H43.9688C43 20 42.0834 20.4063 41.4376 21.1257C40.7919 21.8446 40.4896 22.8138 40.5939 23.783L41.2608 29.0665Z" fill="#181D1F"/>
<path d="M40.8498 32.5782C39.9736 31.7364 39.3604 30.6145 39.1945 29.3339L38.5265 24.0439C38.5201 23.9842 38.5212 23.9256 38.5167 23.8658C35.3194 25.7305 32.9564 28.9748 32.1006 32.669C32.3938 32.6172 32.6919 32.5779 32.9998 32.5779L40.8498 32.5782Z" fill="#181D1F"/>
<path d="M57.0003 32.5783C57.3078 32.5783 57.6056 32.6172 57.8984 32.669C57.043 28.9756 54.6811 25.7324 51.4849 23.8674C51.4811 23.9109 51.4823 23.9544 51.4777 23.9978L50.8067 29.3268C50.6401 30.6115 50.0253 31.7354 49.1465 32.5783L57.0003 32.5783Z" fill="#181D1F"/>
<path d="M45.0003 54.6592C49.3054 54.6592 54.4454 49.4909 55.6528 42.9263H34.3052C35.331 49.5226 39.8118 54.6592 45.0003 54.6592Z" fill="#181D1F"/>
<path d="M33.0001 40.842H56.9999C58.6979 40.842 60.0835 39.4559 60.0835 37.747C60.0835 36.0483 58.6979 34.6626 56.9999 34.6626H33.0001C31.302 34.6626 29.9165 36.0487 29.9165 37.747C29.9169 39.4559 31.3024 40.842 33.0001 40.842Z" fill="#181D1F"/>
</svg>
