<svg width="90" height="90" viewBox="0 0 90 90" fill="none" xmlns="http://www.w3.org/2000/svg">
<circle cx="45" cy="45" r="44.5" stroke="#DBE1E3"/>
<path d="M65.4458 24.553C60.9513 20.0524 57.5749 20.7275 57.5749 20.7275L23.8344 54.464L20.6877 69.307L35.5317 66.1599L69.2732 32.4254C69.2724 32.425 69.9463 29.0516 65.4449 24.553H65.4458ZM34.6487 64.3737L29.5866 65.463C29.0987 64.5481 28.5104 63.6381 27.4354 62.5586C26.3601 61.4832 25.4444 60.893 24.5286 60.4063L25.6179 55.343L27.0824 53.8848C27.0824 53.8848 29.8396 53.9387 32.9428 57.0482C36.0511 60.1599 36.1104 62.9086 36.1104 62.9086L34.6487 64.3737Z" fill="#181D1F"/>
<path d="M30.5893 43.4677L32.716 41.3418L23.0633 31.6883L31.6872 23.0644L33.6798 25.0571L30.9931 27.7437C30.4049 28.3296 30.406 29.2834 30.9931 29.8693C31.5791 30.4575 32.5304 30.4575 33.1187 29.8693L35.8054 27.1826L39.4802 30.8555L36.7923 33.5444C36.2052 34.1303 36.2052 35.0841 36.7935 35.67C37.1155 35.9928 37.5464 36.1206 37.9689 36.0885L43.465 30.5916L33.622 20.7478C32.5552 19.6809 30.7319 19.7654 29.5601 20.9384L20.9374 29.5627C19.7659 30.7349 19.6807 32.5559 20.7479 33.6246L30.5893 43.4677Z" fill="#181D1F"/>
<path d="M69.2496 56.3752L59.4124 46.5385L53.783 52.1675C53.8186 52.4946 53.9415 52.817 54.193 53.0685C54.7789 53.6568 55.7294 53.6568 56.3173 53.0685L59.0052 50.3814L62.6788 54.0563L59.991 56.7433C59.4039 57.3293 59.4039 58.283 59.991 58.8685C60.5792 59.4575 61.5298 59.4575 62.1177 58.8685L64.8044 56.1818L66.9334 58.3113H66.9322L58.31 66.9359L48.6631 57.2887L46.5364 59.4142L56.3747 69.2517C57.4423 70.319 59.264 70.2341 60.4366 69.0634L69.0593 60.4396C70.2339 59.2654 70.3172 57.4437 69.2496 56.3752L69.2496 56.3752Z" fill="#181D1F"/>
</svg>
