<svg width="90" height="90" viewBox="0 0 90 90" fill="none" xmlns="http://www.w3.org/2000/svg">
<circle cx="45" cy="45" r="44.5" stroke="#DBE1E3"/>
<path d="M33.1915 42.9476C33.5826 42.3002 33.3734 41.4659 32.7257 41.0752L29.9516 39.4011C29.3035 39.016 28.463 39.2246 28.077 39.8664L20.6973 52.0947C20.3062 52.742 20.5154 53.5815 21.1579 53.967L23.9372 55.6412C24.5797 56.0318 25.4206 55.8233 25.8117 55.1759L32.8489 43.515L33.1915 42.9476Z" fill="#181D1F"/>
<path d="M69.3027 52.0944L61.923 39.8661C61.5375 39.2243 60.6966 39.0158 60.0484 39.4008L57.2744 41.075C56.6262 41.4656 56.4174 42.2999 56.8085 42.9473L57.0977 43.4235L63.7276 54.41L64.1882 55.1749C64.5793 55.8223 65.4198 56.0308 66.0628 55.6402L68.842 53.966C69.4845 53.581 69.6933 52.7411 69.3026 52.0937L69.3027 52.0944Z" fill="#181D1F"/>
<path d="M47.3191 65.8521C47.3191 65.5204 47.2387 65.1835 47.0729 64.8891C46.9496 64.6644 46.7838 64.4559 46.5693 64.2846C46.4942 64.2257 46.4139 64.1723 46.3336 64.1242C46.0553 63.9581 45.7497 63.8622 45.4393 63.8462C45.4501 63.8943 45.4501 63.9425 45.4501 63.9906V64.0656C45.4232 64.8144 45.1771 65.4939 44.7273 66.0554L42.8154 68.4252C42.644 68.639 42.4299 68.8423 42.1994 69.008C42.1244 69.0669 42.044 69.1203 41.9585 69.1684C42.0601 69.3076 42.183 69.4412 42.3223 69.5535C43.1898 70.2542 44.4591 70.115 45.1554 69.2434L46.0819 68.0987L46.8746 67.1144C47.0942 66.8469 47.2279 66.5312 47.287 66.2103C47.3083 66.0928 47.3191 65.9697 47.3191 65.8521L47.3191 65.8521Z" fill="#181D1F"/>
<path d="M43.8861 65.3916C44.1969 65.001 44.3627 64.5357 44.3788 64.0651V63.9901C44.3788 63.3376 44.0897 62.6902 43.5435 62.2462C43.1363 61.9197 42.6436 61.7592 42.1565 61.754C42.1456 61.9305 42.1191 62.091 42.0922 62.241C41.9689 62.7652 41.7493 63.204 41.4336 63.5943L39.1683 66.408C39.045 66.5576 38.89 66.7397 38.6808 66.8945C38.5254 67.0229 38.3543 67.1404 38.1772 67.2314C38.3166 67.5575 38.5359 67.8572 38.8306 68.0926C39.6446 68.7564 40.7799 68.7403 41.5778 68.1359C41.7276 68.0288 41.8617 67.9004 41.9794 67.7508L43.8861 65.3916Z" fill="#181D1F"/>
<path d="M38.3326 65.7404L40.598 62.9267C40.8176 62.6539 40.9622 62.3595 41.0369 62.0439C41.069 61.873 41.0959 61.7069 41.0959 61.5304C41.0959 60.8779 40.8012 60.2253 40.255 59.7813C39.7944 59.4123 39.2322 59.2518 38.6861 59.2947C38.7074 59.3962 38.713 59.4977 38.7182 59.5996C38.7612 60.3216 38.5202 61.0543 38.0488 61.648L36.2602 63.868C35.8747 64.3546 35.3659 64.6971 34.7768 64.8684C34.7446 64.8792 34.7125 64.8897 34.6752 64.9005C34.5949 64.9218 34.5198 64.9378 34.4395 64.9538C34.5571 65.3818 34.8089 65.7777 35.1836 66.0825C36.0349 66.7672 37.2187 66.7299 38.0167 66.0556C38.1343 65.9702 38.2363 65.8579 38.3327 65.7403L38.3326 65.7404Z" fill="#181D1F"/>
<path d="M35.4246 63.1995L37.2132 60.9795C37.5293 60.5836 37.6738 60.1075 37.6469 59.6422C37.6256 59.0915 37.3686 58.5564 36.908 58.1818L36.7582 58.0643C35.9013 57.3744 34.6536 57.508 33.9629 58.3639L32.3562 60.3537L32.1743 60.5836C31.4888 61.4395 31.6226 62.6909 32.4795 63.3812L32.6293 63.4991C33.1433 63.9163 33.8023 64.0286 34.3966 63.8681V63.8629C34.7873 63.7663 35.1515 63.5417 35.4246 63.1995L35.4246 63.1995Z" fill="#181D1F"/>
<path d="M56.1289 43.8894L55.5129 44.1838C54.8756 44.4939 54.1419 44.526 53.4778 44.2749L47.7373 42.119C46.6555 41.7071 45.4772 41.6325 44.3472 41.8892L42.398 42.3332C42.157 42.3865 41.9161 42.4563 41.6804 42.5309C39.897 43.1141 38.3654 44.3014 37.3587 45.9009L35.4255 48.9714C35.0183 49.6079 35.2058 50.4531 35.8379 50.8702C36.47 51.2821 37.1928 51.4851 37.9157 51.4851C38.6867 51.4851 39.4525 51.2553 40.1059 50.7952L44.626 47.6073H44.6312L54.1746 52.4537L60.178 57.7173C60.6278 56.0214 61.8112 55.1711 62.6899 54.7591L56.1828 43.9751L56.1289 43.8894Z" fill="#181D1F"/>
<path d="M47.7045 67.7939L47.0459 68.6069L48.2133 69.2278C49.4396 69.8804 50.9231 69.5968 51.8282 68.6181L48.2615 66.7297C48.149 67.12 47.9559 67.4838 47.7045 67.7939L47.7045 67.7939Z" fill="#181D1F"/>
<path d="M60.4872 58.7377C60.3856 58.7698 60.2836 58.7859 60.1768 58.7859C59.9198 58.7859 59.668 58.6948 59.47 58.5183L53.5681 53.3458L44.7159 48.8527L40.7207 51.6664C39.9015 52.2496 38.9265 52.5544 37.9145 52.5544C36.9668 52.5544 36.0456 52.2817 35.2529 51.7626C34.1281 51.0246 33.8069 49.516 34.5192 48.3927L36.4524 45.3331C37.154 44.2152 38.086 43.2738 39.173 42.5571C38.4984 42.6109 37.8289 42.7336 37.1808 42.9261L35.2047 43.5146H34.096L27.3375 54.7103L27.3267 54.7264L29.8007 56.2774L31.7555 59.3959L33.1265 57.6896C33.7104 56.9673 34.583 56.5557 35.5098 56.5557C36.2062 56.5557 36.8861 56.7964 37.4325 57.2296L37.5719 57.3419C37.8879 57.5986 38.1501 57.9143 38.3429 58.2568C38.5087 58.2299 38.6858 58.2195 38.8569 58.2195C39.6066 58.2195 40.3403 58.4762 40.9242 58.9471C41.4864 59.4071 41.8775 60.0116 42.0541 60.6854H42.1397C42.8894 60.6854 43.6283 60.9421 44.2122 61.413C44.6676 61.782 45.0101 62.2477 45.2138 62.7715C45.2459 62.7663 45.278 62.7663 45.3049 62.7663C45.8619 62.7663 46.408 62.9215 46.8899 63.2103C47.0023 63.2797 47.12 63.36 47.2325 63.4458C47.5485 63.7025 47.8107 64.0129 48.0091 64.3763C48.2127 64.7342 48.3356 65.1409 48.3733 65.574L52.422 67.7191L52.5183 67.7725C52.8183 67.9329 53.1343 68.0131 53.4504 68.0187C54.2431 68.0508 55.0193 67.6337 55.4157 66.8901C55.5012 66.7348 55.5603 66.5692 55.6032 66.4087H55.5924C55.4209 66.4087 55.2495 66.3714 55.0888 66.2856L48.9837 63.0548C48.8018 62.9585 48.6946 62.7712 48.6946 62.5787C48.6946 62.4932 48.7159 62.4078 48.7588 62.3272C48.8982 62.0705 49.2247 61.969 49.4817 62.1078L55.5921 65.3386L55.8812 65.4882C56.1113 65.6114 56.347 65.6916 56.588 65.7289C57.5625 65.9002 58.5749 65.4345 59.062 64.5148C59.2279 64.1991 59.3138 63.8674 59.3299 63.5357C59.2709 63.5465 59.2066 63.5517 59.1424 63.5517C59.0942 63.5517 59.046 63.5465 58.9978 63.5409C58.5641 63.482 58.1625 63.3484 57.7926 63.1398L51.4847 59.6205C51.308 59.5243 51.2064 59.3425 51.2064 59.1496C51.2064 59.0642 51.2277 58.9732 51.2759 58.8877C51.4204 58.631 51.7473 58.54 52.0043 58.6844L58.3235 62.2092C58.5857 62.3588 58.8644 62.4446 59.1427 62.482C59.5017 62.5301 59.8655 62.498 60.2032 62.3805C60.7441 62.204 61.2208 61.835 61.5207 61.3C62.0886 60.2835 61.8797 59.4011 60.9638 58.4434C60.8353 58.5773 60.6743 58.6844 60.4871 58.7381L60.4872 58.7377Z" fill="#181D1F"/>
<path d="M44.9999 39.6952C48.5129 38.9568 51.4584 36.5714 53.0759 33.3297C53.9381 31.6178 54.4256 29.6548 54.4256 27.5848C54.4256 25.2792 54.2276 23.4017 53.8578 21.8771C51.4961 20.7059 48.4005 20 44.9999 20C41.5993 20 38.5037 20.7059 36.142 21.8775C35.7726 23.4021 35.5742 25.2796 35.5742 27.5851C35.5742 29.6552 36.0617 31.6182 36.9239 33.3301C38.5414 36.5714 41.4869 38.9571 44.9998 39.6952H44.9999ZM39.9767 28.7402C40.2927 28.4245 40.8015 28.4245 41.1119 28.7402L43.5218 31.142L49.9589 24.7124C50.2697 24.3968 50.7781 24.3968 51.0942 24.7124C51.405 25.0225 51.405 25.5307 51.0942 25.8463L44.0895 32.8431C43.9341 32.9927 43.7309 33.0785 43.5217 33.0785C43.3077 33.0785 43.1041 32.9931 42.9487 32.8431L39.9766 29.8742C39.6658 29.5589 39.6658 29.0507 39.9766 28.7402L39.9767 28.7402Z" fill="#181D1F"/>
</svg>
