<svg width="95" height="34" viewBox="0 0 95 34" fill="none" xmlns="http://www.w3.org/2000/svg">
<path d="M25.92 26V19.712C25.92 17.528 25.896 15.872 25.728 14.816L30.168 26H33L37.464 14.792C37.296 16.04 37.296 17.072 37.296 20.6V26H40.272V8.456H37.248L31.584 22.424L25.92 8.456H22.944V26H25.92ZM47.2509 26.312C49.0989 26.312 50.7069 25.472 51.2109 24.248L51.4269 26H53.9949V18.8C53.9949 15.512 52.0269 13.784 48.8349 13.784C45.6189 13.784 43.5069 15.464 43.5069 18.032H46.0029C46.0029 16.784 46.9629 16.064 48.6909 16.064C50.1789 16.064 51.1389 16.712 51.1389 18.32V18.584L47.5869 18.848C44.7789 19.064 43.1949 20.432 43.1949 22.616C43.1949 24.848 44.7309 26.312 47.2509 26.312ZM48.2109 24.104C46.8909 24.104 46.1709 23.576 46.1709 22.496C46.1709 21.536 46.8669 20.936 48.6909 20.768L51.1629 20.576V21.2C51.1629 23.024 50.0109 24.104 48.2109 24.104ZM55.9594 22.4C55.9594 24.728 57.8314 26.312 60.7834 26.312C63.7114 26.312 65.7514 24.824 65.7514 22.424C65.7514 20.6 64.7434 19.688 62.7514 19.232L60.6154 18.728C59.6074 18.488 59.0794 18.056 59.0794 17.384C59.0794 16.496 59.7514 15.968 60.9034 15.968C62.0314 15.968 62.7034 16.616 62.7274 17.624H65.5114C65.4874 15.32 63.6874 13.784 61.0234 13.784C58.2874 13.784 56.3194 15.176 56.3194 17.504C56.3194 19.4 57.3514 20.408 59.4874 20.888L61.6234 21.392C62.6794 21.632 62.9914 22.064 62.9914 22.664C62.9914 23.528 62.2474 24.08 60.8794 24.08C59.5354 24.08 58.7674 23.432 58.7434 22.4H55.9594ZM67.2848 20.048C67.2848 23.744 69.9488 26.288 73.6208 26.288C77.2928 26.288 79.9568 23.744 79.9568 20.048C79.9568 16.352 77.2928 13.808 73.6208 13.808C69.9488 13.808 67.2848 16.352 67.2848 20.048ZM70.2128 20.048C70.2128 17.888 71.6048 16.424 73.6208 16.424C75.6368 16.424 77.0288 17.888 77.0288 20.048C77.0288 22.208 75.6368 23.672 73.6208 23.672C71.6048 23.672 70.2128 22.208 70.2128 20.048ZM85.2056 26V19.616C85.2056 17.696 86.3096 16.448 88.1096 16.448C89.6216 16.448 90.6056 17.408 90.6056 19.4V26H93.5336V18.704C93.5336 15.632 91.9976 13.784 89.0216 13.784C87.4136 13.784 85.9736 14.48 85.2296 15.68L84.9896 14.144H82.2776V26H85.2056Z" fill="#181D1F"/>
<path d="M16.9282 8.28868C16.8812 8.20501 16.8135 8.13464 16.7314 8.08424C16.6492 8.03371 16.5553 8.00491 16.4587 8.00057C16.3621 7.99624 16.2659 8.01652 16.1795 8.05949L7.1128 12.5595C7.01879 12.6063 6.93975 12.6781 6.88451 12.7669C6.82926 12.8557 6.8 12.958 6.8 13.0624V16.5949L0.3876 18.7167C0.274808 18.754 0.176689 18.8255 0.107128 18.9212C0.0375678 19.0169 9.02663e-05 19.1319 0 19.25V25.4375C0 25.5867 0.0597022 25.7298 0.165973 25.8352C0.272243 25.9407 0.416377 26 0.566667 26H16.4333C16.5836 26 16.7278 25.9407 16.834 25.8352C16.9403 25.7298 17 25.5867 17 25.4375V8.56237C17 8.46657 16.9753 8.37236 16.9282 8.28868Z" fill="#181D1F"/>
</svg>
